name Walk2.mot
datacolumns 19
datarows 12
range 1.91600000 1.92700000
endheader

                time	   L_ground_force_vx	   L_ground_force_vy	   L_ground_force_vz	   L_ground_force_px	   L_ground_force_py	   L_ground_force_pz	   R_ground_force_vx	   R_ground_force_vy	   R_ground_force_vz	   R_ground_force_px	   R_ground_force_py	   R_ground_force_pz	   L_ground_torque_x	   L_ground_torque_y	   L_ground_torque_z	   R_ground_torque_x	   R_ground_torque_y	   R_ground_torque_z	
          1.91600000	         -0.00000001	         -0.00000003	          0.00000000	          0.00000000	          0.00000000	          0.00000000	         -1.37071695	         -6.26782391	         -0.02081521	          0.02874360	          0.00000000	          0.00370109	          0.00000000	          0.00000000	          0.00000000	          0.00000000	          0.30413519	          0.00000000	
          1.91700000	         -0.00000001	         -0.00000003	          0.00000000	          0.00000000	          0.00000000	          0.00000000	         -1.40339812	         -6.35797332	         -0.03388120	          0.02397842	          0.00000000	          0.00318705	          0.00000000	          0.00000000	          0.00000000	          0.00000000	          0.31113299	          0.00000000	
          1.91800000	         -0.00000001	         -0.00000003	          0.00000000	          0.00000000	          0.00000000	          0.00000000	         -1.42799748	         -6.41643255	         -0.04570823	          0.01952779	          0.00000000	          0.00270467	          0.00000000	          0.00000000	          0.00000000	          0.00000000	          0.31636010	          0.00000000	
          1.91900000	         -0.00000001	         -0.00000003	          0.00000000	          0.00000000	          0.00000000	          0.00000000	         -1.44510924	         -6.44567513	         -0.05635696	          0.01538178	          0.00000000	          0.00225309	          0.00000000	          0.00000000	          0.00000000	          0.00000000	          0.31994733	          0.00000000	
          1.92000000	         -0.00000001	         -0.00000003	          0.00000000	          0.00000000	          0.00000000	          0.00000000	         -1.45530535	         -6.44807467	         -0.06588733	          0.01153016	          0.00000000	          0.00183138	          0.00000000	          0.00000000	          0.00000000	          0.00000000	          0.32202055	          0.00000000	
          1.92100000	         -0.00000001	         -0.00000002	          0.00000000	          0.00000000	          0.00000000	          0.00000000	         -1.45913528	         -6.42590442	         -0.07435841	          0.00796245	          0.00000000	          0.00143862	          0.00000000	          0.00000000	          0.00000000	          0.00000000	          0.32270066	          0.00000000	
          1.92200000	         -0.00000001	         -0.00000002	          0.00000000	          0.00000000	          0.00000000	          0.00000000	         -1.45712584	         -6.38133718	         -0.08182826	          0.00466799	          0.00000000	          0.00107381	          0.00000000	          0.00000000	          0.00000000	          0.00000000	          0.32210353	          0.00000000	
          1.92300000	         -0.00000001	         -0.00000002	          0.00000000	          0.00000000	          0.00000000	          0.00000000	         -1.44978112	         -6.31644564	         -0.08835379	          0.00163600	          0.00000000	          0.00073596	          0.00000000	          0.00000000	          0.00000000	          0.00000000	          0.32034002	          0.00000000	
          1.92400000	         -0.00000001	         -0.00000002	          0.00000000	          0.00000000	          0.00000000	          0.00000000	         -1.43758249	         -6.23320307	         -0.09399062	         -0.00114438	          0.00000000	          0.00042405	          0.00000000	          0.00000000	          0.00000000	          0.00000000	          0.31751596	          0.00000000	
          1.92500000	         -0.00000001	         -0.00000002	          0.00000000	          0.00000000	          0.00000000	          0.00000000	         -1.42098874	         -6.13348431	         -0.09879302	         -0.00368403	          0.00000000	          0.00013707	          0.00000000	          0.00000000	          0.00000000	          0.00000000	          0.31373219	          0.00000000	
          1.92600000	         -0.00000001	         -0.00000002	          0.00000000	          0.00000000	          0.00000000	          0.00000000	         -1.40043628	         -6.01906705	         -0.10281378	         -0.00599383	          0.00000000	         -0.00012604	          0.00000000	          0.00000000	          0.00000000	          0.00000000	          0.30908462	          0.00000000	
          1.92700000	         -0.00000001	         -0.00000002	          0.00000000	          0.00000000	          0.00000000	          0.00000000	         -1.37633936	         -5.89163336	         -0.10610416	         -0.00808460	          0.00000000	         -0.00036630	          0.00000000	          0.00000000	          0.00000000	          0.00000000	          0.30366424	          0.00000000	
